<svg xmlns="http://www.w3.org/2000/svg" xmlns:xlink="http://www.w3.org/1999/xlink" version="1.1" x="0px" y="0px" viewBox="0 0 100 100" style="fill: #faf5ff" width="50" height="50"><path d="M86.2,35c0.3-3.5,0.4-6.3-0.1-8.8c-1.7-9.4-10.3-16.2-20.8-19.1c-8.6-2.4-24.4-5.9-34.5,1c-5.4,3.7-8.8,10.9-9.6,21.5  c-0.3,4.2,1.5,12.6,2.9,17.4c1.4,4.8,2.5,7,3.3,9c0.9,2.1,3.5,12.2,2.8,18.1c-1.1,9-8.1,14.4-11.6,17.1c-1.1,0.9-0.6,2.6,0.7,2.8  l36.5,0c1.4,0.2,2.4-1.2,1.6-2.4c-1.8-2.9-2.3-5.9-0.9-9.3c0.7-1.6,1.4-2.3,3.3-1.5c2.5,1.1,5.2,2.2,7.9,2.8  c1.9,0.4,2.3,0.5,4.4-0.8c1.7-1,2.9-2.6,2.7-5.1c-0.2-2.3-0.3-2.8,0.2-3.9c0.3-0.7,1.2-1.4,1.6-2.5c0.1-0.2-2-0.7-2-0.9  c0.1-0.2,2.2-0.2,2.3-0.4c0.3-1,0.1-2,0.4-3.1c0.5-1.9,1.5-4.2,3.3-4.3c0.7,0,1.3-0.4,2-0.6c1.2-0.5,1.7-1.4,1.4-3  c-0.9-4.1-2.1-6.4-2.9-10.5c-0.2-0.8-0.3-2.1,0.1-2.7C83.8,42.5,85.4,44.3,86.2,35z M72.5,37c-1.1,1.1-2.1,2.1-3.2,3.2  c0,0-0.1,0-0.2,0.1c-1.7-4.2-5.2-5.5-8.4-5c-3.5,0.5-6.5,3.6-7,7.4c-0.4,3.2,1.5,6.2,5.2,7.9c-1.2,1.3-2.3,2.5-3.6,3.6  c-1.4,1.2-3.6,1-5-0.3c-1.5-1.5-3-3-4.5-4.5c-0.3-0.3-0.7-0.6-1.1-0.9c-1.5-0.9-3.1-0.2-3.5,1.5c0,0.2,0,0.4-0.1,0.6  c-0.2,1.8-1,3.2-2.9,3.7c-1.8,0.5-3.4-0.1-4.6-1.5c-1.1-1.2-1.6-2.7-1-4.4c0.6-1.6,1.9-2.4,3.6-2.6c0.4,0,0.8-0.1,1.2-0.3  c1.4-0.5,1.9-1.9,1.1-3.2c-0.2-0.4-0.6-0.8-0.9-1.1c-1.4-1.5-2.9-2.9-4.4-4.4c-1.7-1.7-1.7-3.8,0-5.6c1.5-1.5,2.9-2.9,4.4-4.4  c0.3-0.3,0.6-0.6,0.8-0.9c1-1.6,0.2-3.3-1.6-3.6c-0.4-0.1-0.8-0.1-1.2-0.2c-2.8-0.7-4.1-3.4-2.6-6c0.7-1.3,1.8-2.2,3.3-2.5  c2.3-0.5,4.5,1.1,4.8,3.5c0.1,1.2,0.3,2.4,1.7,2.8c1.3,0.4,2.2-0.4,3.1-1.2c1.4-1.4,2.9-2.9,4.3-4.3c1.7-1.7,3.8-1.7,5.5,0  c1.4,1.4,2.8,2.8,4.2,4.2c0.2,0.2,0.4,0.4,0.7,0.6c0.8,0.7,1.6,1.1,2.6,0.7c1.1-0.4,1.4-1.3,1.5-2.3c0.2-1.9,1.2-3.3,2.8-3.8  c2.4-0.7,5.1,1,5.7,3.6c0.5,2.4-1,4.5-3.7,4.9c-0.2,0-0.4,0-0.6,0.1c-1.9,0.3-2.7,2-1.6,3.6c0.2,0.3,0.5,0.6,0.8,0.9  c1.5,1.5,2.9,3,4.4,4.5C74.2,33.2,74.2,35.3,72.5,37z"/></svg>